<svg width="72" height="74" viewBox="0 0 72 74" fill="none" xmlns="http://www.w3.org/2000/svg">
<g filter="url(#filter0_d)">
<path d="M32.6432 19.085C32.384 20.0786 32.2544 21.1155 32.2544 22.1523V25.2197H41.975V41.1182C41.975 49.8883 34.8466 57.0167 26.0765 57.0167C17.3064 57.0167 10.178 49.8883 10.178 41.1182C10.178 34.5514 14.1958 28.8919 19.8985 26.4726V22.1523C19.8985 21.4179 19.9417 20.6835 19.9849 19.949C10.7828 22.5844 4 31.0952 4 41.1182C4 53.2581 13.8934 63.1515 26.0333 63.1515C38.1731 63.1515 48.0665 53.2581 48.0665 41.1182V19.085H32.6432Z" fill="url(#paint0_linear)"/>
<path d="M45.0445 0.118164C32.9046 0.118164 23.0112 10.0115 23.0112 22.1514V44.1847H38.5209C38.7801 43.191 38.9097 42.1542 38.9097 41.1173V38.0499H29.1892V22.1514C29.1892 13.3813 36.3176 6.25291 45.0877 6.25291C53.8578 6.25291 60.9862 13.3813 60.9862 22.1514C60.9862 28.7182 56.9684 34.3777 51.2656 36.797V41.1173C51.2656 41.8517 51.2224 42.5862 51.1792 43.3206C60.3814 40.6853 67.1641 32.2176 67.1641 22.1514C67.0777 10.0115 57.2276 0.118164 45.0445 0.118164Z" fill="url(#paint1_linear)"/>
</g>
<defs>
<filter id="filter0_d" x="0" y="0.118164" width="71.1641" height="73.0333" filterUnits="userSpaceOnUse" color-interpolation-filters="sRGB">
<feFlood flood-opacity="0" result="BackgroundImageFix"/>
<feColorMatrix in="SourceAlpha" type="matrix" values="0 0 0 0 0 0 0 0 0 0 0 0 0 0 0 0 0 0 127 0" result="hardAlpha"/>
<feOffset dy="6"/>
<feGaussianBlur stdDeviation="2"/>
<feColorMatrix type="matrix" values="0 0 0 0 0 0 0 0 0 0 0 0 0 0 0 0 0 0 0.14 0"/>
<feBlend mode="normal" in2="BackgroundImageFix" result="effect1_dropShadow"/>
<feBlend mode="normal" in="SourceGraphic" in2="effect1_dropShadow" result="shape"/>
</filter>
<linearGradient id="paint0_linear" x1="26.0333" y1="19.085" x2="26.0333" y2="63.1515" gradientUnits="userSpaceOnUse">
<stop stop-color="#30FEB2"/>
<stop offset="1" stop-color="#05BC79"/>
</linearGradient>
<linearGradient id="paint1_linear" x1="45.0877" y1="0.118164" x2="45.0877" y2="44.1847" gradientUnits="userSpaceOnUse">
<stop stop-color="#30FEB2"/>
<stop offset="1" stop-color="#05BC79"/>
</linearGradient>
</defs>
</svg>
